<?xml version="1.0" standalone="no"?>
<!DOCTYPE svg PUBLIC "-//W3C//DTD SVG 20010904//EN"
 "http://www.w3.org/TR/2001/REC-SVG-20010904/DTD/svg10.dtd">
<svg version="1.0" xmlns="http://www.w3.org/2000/svg"
 width="500.000000pt" height="500.000000pt" viewBox="0 0 500.000000 500.000000"
 preserveAspectRatio="xMidYMid meet">

<g transform="translate(0.000000,500.000000) scale(0.100000,-0.100000)"
fill="#000000" stroke="none">
<path d="M1012 4785 c-29 -21 -28 -33 11 -97 17 -30 282 -487 587 -1016 431
-747 560 -964 578 -968 27 -7 52 11 52 39 0 11 -250 454 -556 984 -306 530
-554 966 -552 968 3 3 607 8 1343 12 1266 6 1338 5 1332 -11 -4 -9 -626 -1007
-1383 -2217 -757 -1210 -1378 -2208 -1381 -2217 -2 -9 3 -26 11 -37 14 -20 24
-20 1468 -16 940 2 1457 7 1466 14 6 5 12 18 12 28 0 9 -264 475 -586 1033
-507 880 -589 1016 -609 1016 -29 0 -49 -24 -43 -52 3 -13 255 -457 561 -987
306 -530 557 -965 557 -967 0 -4 -1388 -2 -2272 4 l-437 2 83 133 c1765 2822
2682 4298 2684 4320 2 16 -2 29 -10 31 -7 3 -661 7 -1453 10 -1297 6 -1443 5
-1463 -9z"/>
</g>
</svg>
